<?xml version="1.0" encoding="utf-8"?>
<svg x="438.196pt" y="59.8574pt" width="4128.13pt" height="3608.32pt" viewBox="438.196 59.8574 4128.13 3608.32" xmlns="http://www.w3.org/2000/svg" xmlns:xlink="http://www.w3.org/1999/xlink">
  <g id="1">
    <title>Layer 1</title>
    <clipPath id="3">
      <use xlink:href="#2"/>
      <path id="2" d="M-4891.78,-3519.12 C-4891.78,-3519.12,9108.22,-3519.12,9108.22,-3519.12 C9108.22,-3519.12,9108.22,6980.88,9108.22,6980.88 C9108.22,6980.88,-4891.78,6980.88,-4891.78,6980.88 C-4891.78,6980.88,-4891.78,-3519.12,-4891.78,-3519.12 z"/>
    </clipPath>
    <g id="4" style="clip-path:url(#3);">
      <title>ClipGroup</title>
      <g id="5">
        <title>Group</title>
        <defs>
          <title>Shape 1</title>
          <g id="6">
            <defs>
              <path id="7" d="M2359.99,84.4531 C1759.39,125.333,1209.75,426.053,846.59,912.973 C763.99,1023.57,684.19,1159.09,626.51,1285.65 C433.59,1710.13,390.47,2192.57,505.27,2644.49 C599.91,3017.17,790.87,3345.33,1071.71,3618.33 C1088.79,3634.95,1105.87,3651.56,1122.95,3668.17 C1143.39,3668.17,1163.83,3668.17,1184.27,3668.17 C1204.71,3668.17,1225.15,3668.17,1245.59,3668.17 C1245.03,3663.69,1244.47,3659.21,1243.91,3654.73 C1242.79,3647.45,1161.03,3073.45,1061.91,2379.05 C962.79,1684.65,881.87,1116.25,882.43,1115.97 C882.71,1115.69,912.67,1089.93,948.79,1058.57 C984.91,1027.21,1016.55,1000.05,1019.07,997.813 C1022.71,994.733,1028.59,996.413,1057.99,1008.17 C1077.31,1016.01,1093.55,1023.29,1094.67,1024.41 C1095.79,1025.53,1193.51,1580.21,1311.39,2256.97 C1429.55,2933.73,1526.43,3487.85,1526.71,3488.13 C1526.99,3488.69,1546.59,3486.17,1569.83,3482.81 C1584.02,3480.85,1598.2,3478.89,1612.39,3476.93 C1612.39,3473.95,1612.39,3470.96,1612.39,3467.97 C1612.39,3455.93,1608.19,3414.21,1581.31,3168.37 C1562.27,2992.53,1535.95,2789.81,1407.71,1829.41 C1324.83,1206.97,1256.79,694.853,1256.79,691.213 C1256.79,685.333,1268.27,680.293,1394.83,630.733 C1470.43,601.053,1533.99,576.973,1535.39,576.973 C1537.07,576.973,1640.67,1148.73,1766.11,1847.61 C1891.55,2546.21,2051.26,3431.45,2052.38,3436.21 C2052.94,3438.91,2729.31,3436.33,2729.87,3436.89 C2730.43,3437.45,2778.87,3438.57,2837.39,3439.13 C2872.95,3439.51,2908.51,3439.88,2944.07,3440.25 C3030.31,2963.04,3116.55,2485.83,3202.79,2008.61 C3345.31,1221.25,3463.19,576.973,3464.59,576.973 C3466.27,576.973,3529.55,601.053,3605.43,630.733 C3731.99,680.573,3743.19,685.333,3743.19,691.213 C3743.19,694.853,3675.15,1206.97,3592.27,1829.41 C3464.31,2787.57,3437.71,2992.81,3418.67,3168.37 C3395.15,3384.81,3385.07,3481.69,3385.91,3482.53 C3387.59,3484.49,3470.47,3493.73,3471.87,3492.05 C3472.99,3491.21,3570.15,2935.97,3688.31,2258.37 C3806.47,1580.77,3904.19,1025.53,3905.31,1024.41 C3906.43,1023.29,3922.67,1016.01,3941.99,1008.17 C3971.39,996.413,3977.27,994.733,3980.91,997.813 C3983.43,1000.05,4015.07,1027.21,4051.19,1058.57 C4087.31,1089.93,4117.27,1115.69,4117.55,1115.97 C4118.11,1116.25,4036.35,1689.69,3936.39,2390.25 C3836.15,3090.81,3755.43,3657.65,3755.43,3658.77 C3755.43,3660.17,3865.03,3659.96,3885.47,3659.96 C3902.55,3643.35,3911.19,3634.95,3928.27,3618.33 C4013.95,3535.17,4081.71,3458.45,4148.91,3368.57 C4542.03,2843.85,4659.91,2160.93,4466.43,1530.93 C4339.59,1117.93,4081.15,751.693,3731.99,489.613 C3414.19,251.333,3033.39,110.773,2633.27,84.4531 C2581.75,80.8133,2411.51,81.0932,2359.99,84.4531 z"/>
            </defs>
            <use xlink:href="#7" style="fill:#ffffff;fill-opacity:1;fill-rule:evenodd;opacity:1;stroke:none;"/>
            <use xlink:href="#7" style="fill:none;opacity:1;stroke:#ffffff;stroke-linecap:butt;stroke-linejoin:miter;stroke-miterlimit:10;stroke-opacity:1;stroke-width:1;"/>
          </g>
        </defs>
        <use xlink:href="#6"/>
        <defs>
          <title>Shape 2</title>
          <g id="8">
            <defs>
              <path id="9" d="M2229.91,2812.84 C2224.31,2823.76,2224.03,2832.44,2229.35,2832.44 C2231.59,2832.44,2238.59,2803.88,2236.91,2802.2 C2236.35,2801.64,2233.27,2806.4,2229.91,2812.84 z"/>
            </defs>
            <use xlink:href="#9" style="fill:#000000;fill-opacity:1;fill-rule:evenodd;opacity:1;stroke:none;"/>
          </g>
        </defs>
        <use xlink:href="#8"/>
      </g>
    </g>
    <clipPath id="11">
      <use xlink:href="#10"/>
      <path id="10" d="M-4891.78,-3519.12 C-4891.78,-3519.12,9108.22,-3519.12,9108.22,-3519.12 C9108.22,-3519.12,9108.22,6980.88,9108.22,6980.88 C9108.22,6980.88,-4891.78,6980.88,-4891.78,6980.88 C-4891.78,6980.88,-4891.78,-3519.12,-4891.78,-3519.12 z"/>
    </clipPath>
    <g id="12" style="clip-path:url(#11);">
      <defs>
        <g id="13">
          <defs>
            <path id="14" d="M2359.99,84.4531 C1759.39,125.333,1209.75,426.053,846.59,912.973 C763.99,1023.57,684.19,1159.09,626.51,1285.65 C433.59,1710.13,390.47,2192.57,505.27,2644.49 C599.91,3017.17,790.87,3345.33,1071.71,3618.33 C1088.79,3634.95,1105.87,3651.56,1122.95,3668.17 C1143.39,3668.17,1163.83,3668.17,1184.27,3668.17 C1204.71,3668.17,1225.15,3668.17,1245.59,3668.17 C1245.03,3663.69,1244.47,3659.21,1243.91,3654.73 C1242.79,3647.45,1161.03,3073.45,1061.91,2379.05 C962.79,1684.65,881.87,1116.25,882.43,1115.97 C882.71,1115.69,912.67,1089.93,948.79,1058.57 C984.91,1027.21,1016.55,1000.05,1019.07,997.813 C1022.71,994.733,1028.59,996.413,1057.99,1008.17 C1077.31,1016.01,1093.55,1023.29,1094.67,1024.41 C1095.79,1025.53,1193.51,1580.21,1311.39,2256.97 C1429.55,2933.73,1526.43,3487.85,1526.71,3488.13 C1526.99,3488.69,1546.59,3486.17,1569.83,3482.81 C1584.02,3480.85,1598.2,3478.89,1612.39,3476.93 C1612.39,3473.95,1612.39,3470.96,1612.39,3467.97 C1612.39,3455.93,1608.19,3414.21,1581.31,3168.37 C1562.27,2992.53,1535.95,2789.81,1407.71,1829.41 C1324.83,1206.97,1256.79,694.853,1256.79,691.213 C1256.79,685.333,1268.27,680.293,1394.83,630.733 C1470.43,601.053,1533.99,576.973,1535.39,576.973 C1537.07,576.973,1640.67,1148.73,1766.11,1847.61 C1891.55,2546.21,2051.26,3431.45,2052.38,3436.21 C2052.94,3438.91,2729.31,3436.33,2729.87,3436.89 C2730.43,3437.45,2778.87,3438.57,2837.39,3439.13 C2872.95,3439.51,2908.51,3439.88,2944.07,3440.25 C3030.31,2963.04,3116.55,2485.83,3202.79,2008.61 C3345.31,1221.25,3463.19,576.973,3464.59,576.973 C3466.27,576.973,3529.55,601.053,3605.43,630.733 C3731.99,680.573,3743.19,685.333,3743.19,691.213 C3743.19,694.853,3675.15,1206.97,3592.27,1829.41 C3464.31,2787.57,3437.71,2992.81,3418.67,3168.37 C3395.15,3384.81,3385.07,3481.69,3385.91,3482.53 C3387.59,3484.49,3470.47,3493.73,3471.87,3492.05 C3472.99,3491.21,3570.15,2935.97,3688.31,2258.37 C3806.47,1580.77,3904.19,1025.53,3905.31,1024.41 C3906.43,1023.29,3922.67,1016.01,3941.99,1008.17 C3971.39,996.413,3977.27,994.733,3980.91,997.813 C3983.43,1000.05,4015.07,1027.21,4051.19,1058.57 C4087.31,1089.93,4117.27,1115.69,4117.55,1115.97 C4118.11,1116.25,4036.35,1689.69,3936.39,2390.25 C3836.15,3090.81,3755.43,3657.65,3755.43,3658.77 C3755.43,3660.17,3865.03,3659.96,3885.47,3659.96 C3902.55,3643.35,3911.19,3634.95,3928.27,3618.33 C4013.95,3535.17,4081.71,3458.45,4148.91,3368.57 C4542.03,2843.85,4659.91,2160.93,4466.43,1530.93 C4339.59,1117.93,4081.15,751.693,3731.99,489.613 C3414.19,251.333,3033.39,110.773,2633.27,84.4531 C2581.75,80.8131,2411.51,81.0932,2359.99,84.4531 z M2229.91,2812.84 C2224.31,2823.76,2224.03,2832.44,2229.35,2832.44 C2231.59,2832.44,2238.59,2803.88,2236.91,2802.2 C2236.35,2801.64,2233.27,2806.4,2229.91,2812.84 z"/>
          </defs>
          <use xlink:href="#14" style="fill:#000000;fill-opacity:1;fill-rule:nonzero;opacity:1;stroke:none;"/>
        </g>
      </defs>
      <use xlink:href="#13"/>
    </g>
    <defs>
      <title>Path</title>
      <g id="15">
        <defs>
          <path id="16" d="M1245.59,3668.17 C1245.59,3668.17,3755.22,3659.91,3755.22,3659.91 C3755.22,3659.91,4117.36,1116.31,4117.36,1116.31 C4117.36,1116.31,3978.12,993.366,3978.12,993.366 C3978.12,993.366,3905.28,1024.49,3905.28,1024.49 C3905.28,1024.49,3471.39,3490.8,3471.39,3490.8 C3471.39,3490.8,3387.08,3481.57,3387.08,3481.57 C3387.08,3481.57,3741.06,687.487,3741.06,687.487 C3741.06,687.487,3464.7,578.649,3464.7,578.649 C3464.7,578.649,2944.86,3435.88,2944.86,3435.88 C2944.86,3435.88,2055.66,3436.51,2055.66,3436.51 C2055.66,3436.51,1537.62,578.649,1537.62,578.649 C1537.62,578.649,1244.17,685.557,1244.17,685.557 C1244.17,685.557,1612.22,3451.13,1612.22,3451.13 C1612.22,3451.13,1526.75,3488.16,1526.75,3488.16 C1526.75,3488.16,1094.67,1024.42,1094.67,1024.42 C1094.67,1024.42,1024.22,993.252,1024.22,993.252 C1024.22,993.252,882.659,1115.77,882.659,1115.77 C882.659,1115.77,1245.59,3668.17,1245.59,3668.17 z"/>
        </defs>
        <use xlink:href="#16" style="fill:#ffffff;fill-opacity:1;fill-rule:nonzero;opacity:1;stroke:none;"/>
        <use xlink:href="#16" style="fill:none;opacity:1;stroke:#ff1c24;stroke-linecap:butt;stroke-linejoin:miter;stroke-miterlimit:10;stroke-opacity:1;stroke-width:0;"/>
      </g>
    </defs>
    <use xlink:href="#15"/>
  </g>
  <g id="17">
    <title>Layer 2</title>
    <defs>
      <title>Path</title>
      <g id="18">
        <defs>
          <path id="19" d="M2293.48,3106.75 C2293.48,3106.75,2544.19,2804.84,2544.19,2804.84 C2544.19,2804.84,2557,2815.17,2557,2815.17 C2557,2815.17,2502.04,2906.78,2502.04,2906.78 C2502.04,2906.78,2557,2887.06,2557,2887.06 C2557,2887.06,2565.8,2904.6,2565.8,2904.6 C2565.8,2904.6,2585.37,2892.55,2585.37,2892.55 C2585.37,2892.55,2607.59,2841.8,2607.59,2841.8 C2607.59,2841.8,2617.87,2819.4,2632.75,2812.12 C2647.63,2804.84,2705.41,2807.53,2705.41,2807.53 C2705.41,2807.53,2723.97,2809.66,2734.63,2832.81 C2745.29,2855.96,2751.81,2885.66,2751.81,2885.66 C2751.81,2885.66,2751.81,2921.27,2751.81,2921.27 C2751.81,2921.27,2751.89,2923.19,2760.19,2927.68 C2768.49,2932.17,2720.62,2931.47,2720.62,2931.47 C2720.62,2931.47,2725.25,2964.29,2719.24,2970.59 C2713.22,2976.89,2703.66,2961.08,2698.39,2970.29 C2693.13,2979.51,2675.74,2985.85,2675.74,2985.85 C2675.74,2985.85,2670.9,2998.45,2670.9,2998.45 C2670.9,2998.45,2652.16,3004.27,2652.16,3004.27 C2652.16,3004.27,2635.99,2984.22,2635.99,2984.22 C2635.99,2984.22,2629.01,2979.37,2629.01,2979.37 C2629.01,2979.37,2597.46,2991.86,2597.46,2991.86 C2597.46,2991.86,2596.88,3088.79,2596.88,3088.79 C2596.88,3088.79,2578.34,3086.11,2578.34,3086.11 C2578.34,3086.11,2578.09,3093.72,2578.59,3105.07 C2578.83,3110.53,2579.24,3116.86,2579.94,3123.62 C2581.19,3135.7,2583.34,3149.17,2587.04,3161.56 C2590.74,3173.95,2595.98,3185.27,2603.4,3193.06 C2631.02,3222.06,2703.54,3316.41,2703.54,3316.41 C2703.54,3316.41,2761.16,3394.54,2761.16,3394.54 C2761.16,3394.54,2728.12,3451.13,2728.12,3451.13 C2728.12,3451.13,2468.79,3451.13,2468.79,3451.13 C2468.79,3451.13,2172.69,3451.13,2172.69,3451.13 C2172.69,3451.13,2172.69,3411.18,2172.69,3411.18 C2172.69,3411.18,2171.08,3406.85,2181.3,3402.18 C2191.52,3397.51,2193.69,3393.82,2193.69,3393.82 C2193.69,3393.82,2208.03,3383.85,2203.35,3374.22 C2198.67,3364.6,2191.36,3361.24,2191.36,3361.24 C2191.36,3361.24,2206.59,3315.25,2206.59,3315.25 C2206.59,3315.25,2229.18,3320.38,2229.18,3320.38 C2229.18,3320.38,2254.86,3267.46,2254.86,3267.46 C2254.86,3267.46,2214.99,3249.64,2214.99,3249.64 C2214.99,3249.64,2315.35,3127.99,2315.35,3127.99 C2315.35,3127.99,2293.48,3106.75,2293.48,3106.75 z"/>
        </defs>
        <use xlink:href="#19" style="fill:#ffffff;fill-opacity:1;fill-rule:nonzero;opacity:1;stroke:none;"/>
        <use xlink:href="#19" style="fill:none;opacity:1;stroke:#ffffff;stroke-linecap:butt;stroke-linejoin:miter;stroke-miterlimit:10;stroke-opacity:1;stroke-width:8;"/>
      </g>
    </defs>
    <use xlink:href="#18"/>
  </g>
</svg>
