<?xml version="1.0" encoding="utf-8"?>
<svg x="144.159pt" y="266.487pt" width="4855.84pt" height="3115.18pt" viewBox="144.159 266.487 4855.84 3115.18" xmlns="http://www.w3.org/2000/svg" xmlns:xlink="http://www.w3.org/1999/xlink">
  <g id="1">
    <title>Layer 1</title>
    <clipPath id="3">
      <use xlink:href="#2"/>
      <path id="2" d="M-2418.57,-1962.7 C-2418.57,-1962.7,7581.42,-1962.7,7581.42,-1962.7 C7581.42,-1962.7,7581.42,5537.3,7581.42,5537.3 C7581.42,5537.3,-2418.57,5537.3,-2418.57,5537.3 C-2418.57,5537.3,-2418.57,-1962.7,-2418.57,-1962.7 z"/>
    </clipPath>
    <g id="4" style="clip-path:url(#3);">
      <title>ClipGroup</title>
      <g id="5">
        <title>Group</title>
        <defs>
          <title>Shape 1</title>
          <g id="6">
            <defs>
              <path id="7" d="M2403.92,314.569 C1974.92,343.769,1582.32,558.569,1322.92,906.369 C1263.92,985.369,1206.92,1082.17,1165.72,1172.57 C1027.92,1475.77,997.119,1820.37,1079.12,2143.17 C1146.72,2409.37,1283.12,2643.77,1483.72,2838.77 C1495.92,2850.64,1508.12,2862.5,1520.32,2874.37 C1534.92,2874.37,1549.52,2874.37,1564.12,2874.37 C1578.72,2874.37,1593.32,2874.37,1607.92,2874.37 C1607.52,2871.17,1607.12,2867.97,1606.72,2864.77 C1605.92,2859.57,1547.52,2449.57,1476.72,1953.57 C1405.92,1457.57,1348.12,1051.57,1348.52,1051.37 C1348.72,1051.17,1370.12,1032.77,1395.92,1010.37 C1421.72,987.969,1444.32,968.569,1446.12,966.969 C1448.72,964.769,1452.92,965.969,1473.92,974.369 C1487.72,979.969,1499.32,985.169,1500.12,985.969 C1500.92,986.769,1570.72,1382.97,1654.92,1866.37 C1739.32,2349.77,1808.52,2745.57,1808.72,2745.77 C1808.92,2746.17,1822.92,2744.37,1839.52,2741.97 C1849.65,2740.57,1859.79,2739.17,1869.92,2737.77 C1869.92,2735.64,1869.92,2733.5,1869.92,2731.37 C1869.92,2722.77,1866.92,2692.97,1847.72,2517.37 C1834.12,2391.77,1815.32,2246.97,1723.72,1560.97 C1664.52,1116.37,1615.92,750.569,1615.92,747.969 C1615.92,743.769,1624.12,740.169,1714.52,704.769 C1768.52,683.569,1813.92,666.369,1814.92,666.369 C1816.12,666.369,1890.12,1074.77,1979.72,1573.97 C2069.32,2072.97,2183.39,2705.28,2184.19,2708.68 C2184.59,2710.61,2667.72,2708.77,2668.12,2709.17 C2668.52,2709.57,2703.12,2710.37,2744.92,2710.77 C2770.32,2711.03,2795.72,2711.3,2821.12,2711.57 C2882.72,2370.7,2944.32,2029.84,3005.92,1688.97 C3107.72,1126.57,3191.92,666.369,3192.92,666.369 C3194.12,666.369,3239.32,683.569,3293.52,704.769 C3383.92,740.369,3391.92,743.769,3391.92,747.969 C3391.92,750.569,3343.32,1116.37,3284.12,1560.97 C3192.72,2245.37,3173.72,2391.97,3160.12,2517.37 C3143.32,2671.97,3136.12,2741.17,3136.72,2741.77 C3137.92,2743.17,3197.12,2749.77,3198.12,2748.57 C3198.92,2747.97,3268.32,2351.37,3352.72,1867.37 C3437.12,1383.37,3506.92,986.769,3507.72,985.969 C3508.52,985.169,3520.12,979.969,3533.92,974.369 C3554.92,965.969,3559.12,964.769,3561.72,966.969 C3563.52,968.569,3586.12,987.969,3611.92,1010.37 C3637.72,1032.77,3659.12,1051.17,3659.32,1051.37 C3659.72,1051.57,3601.32,1461.17,3529.92,1961.57 C3458.32,2461.97,3400.66,2866.85,3400.66,2867.65 C3400.66,2868.65,3478.95,2868.5,3493.55,2868.5 C3505.75,2856.64,3511.92,2850.64,3524.12,2838.77 C3585.32,2779.37,3633.72,2724.57,3681.72,2660.37 C3962.52,2285.57,4046.72,1797.77,3908.52,1347.77 C3817.92,1052.77,3633.32,791.169,3383.92,603.969 C3156.92,433.769,2884.92,333.369,2599.12,314.569 C2562.32,311.969,2440.72,312.169,2403.92,314.569 z"/>
            </defs>
            <use xlink:href="#7" style="fill:#ffffff;fill-opacity:1;fill-rule:evenodd;opacity:1;stroke:none;"/>
            <use xlink:href="#7" style="fill:none;opacity:1;stroke:#ffffff;stroke-linecap:butt;stroke-linejoin:miter;stroke-miterlimit:10;stroke-opacity:1;stroke-width:1;"/>
          </g>
        </defs>
        <use xlink:href="#6"/>
        <defs>
          <title>Shape 2</title>
          <g id="8">
            <defs>
              <path id="9" d="M2311,2263.42 C2307,2271.22,2306.8,2277.42,2310.6,2277.42 C2312.2,2277.42,2317.2,2257.02,2316,2255.82 C2315.6,2255.42,2313.4,2258.82,2311,2263.42 z"/>
            </defs>
            <use xlink:href="#9" style="fill:#000000;fill-opacity:1;fill-rule:evenodd;opacity:1;stroke:none;"/>
          </g>
        </defs>
        <use xlink:href="#8"/>
        <defs>
          <title>Shape 6</title>
          <g id="10">
            <defs>
              <path id="11" d="M4239.43,3125.3 C4239.43,3166.64,4239.43,3207.97,4239.43,3249.3 C4248.09,3249.3,4256.76,3249.3,4265.42,3249.3 C4274.09,3249.3,4282.76,3249.3,4291.42,3249.3 C4291.42,3240.1,4291.42,3230.9,4291.42,3221.7 C4291.49,3212.57,4291.56,3203.43,4291.63,3194.3 C4294.23,3191.3,4296.83,3188.3,4299.43,3185.3 C4304.62,3179.5,4308.02,3177.1,4309.22,3178.3 C4310.43,3179.5,4321.02,3195.5,4332.82,3214.3 C4340.09,3225.64,4347.36,3236.97,4354.62,3248.3 C4364.76,3248.5,4374.89,3248.7,4385.03,3248.9 C4395.16,3249.1,4405.29,3249.3,4415.43,3249.5 C4409.69,3240.64,4403.96,3231.77,4398.23,3222.9 C4388.62,3208.3,4372.83,3184.1,4363.23,3169.1 C4353.42,3154.1,4345.43,3141.1,4345.43,3139.9 C4345.43,3138.7,4360.22,3122.5,4378.43,3103.7 C4396.63,3085.1,4411.43,3069.1,4411.43,3068.5 C4411.43,3067.9,4397.63,3067.3,4381.02,3067.3 C4370.83,3067.3,4360.63,3067.3,4350.42,3067.3 C4340.76,3078.03,4331.09,3088.77,4321.43,3099.5 C4311.76,3110.17,4302.09,3120.83,4292.43,3131.5 C4292.22,3109.83,4292.02,3088.17,4291.83,3066.5 C4291.69,3044.77,4291.56,3023.03,4291.42,3001.3 C4282.76,3001.3,4274.09,3001.3,4265.42,3001.3 C4256.76,3001.3,4248.09,3001.3,4239.43,3001.3 C4239.43,3042.64,4239.43,3083.97,4239.43,3125.3 z"/>
            </defs>
            <use xlink:href="#11" style="fill:#ffffff;fill-opacity:1;fill-rule:evenodd;opacity:1;stroke:none;"/>
          </g>
        </defs>
        <use xlink:href="#10"/>
        <defs>
          <title>Shape 7</title>
          <g id="12">
            <defs>
              <path id="13" d="M4440.23,3003.9 C4439.82,3005.3,4439.63,3015.9,4439.82,3027.5 C4440.03,3034.43,4440.23,3041.37,4440.43,3048.3 C4449.63,3048.5,4458.83,3048.7,4468.03,3048.9 C4477.16,3049.1,4486.29,3049.3,4495.42,3049.5 C4495.42,3041.43,4495.42,3033.37,4495.42,3025.3 C4495.42,3017.3,4495.42,3009.3,4495.42,3001.3 C4486.43,3001.3,4477.42,3001.3,4468.42,3001.3 C4447.82,3001.3,4441.03,3001.9,4440.23,3003.9 z"/>
            </defs>
            <use xlink:href="#13" style="fill:#ffffff;fill-opacity:1;fill-rule:evenodd;opacity:1;stroke:none;"/>
          </g>
        </defs>
        <use xlink:href="#12"/>
        <defs>
          <title>Shape 8</title>
          <g id="14">
            <defs>
              <path id="15" d="M4735.43,3125.3 C4735.43,3166.64,4735.43,3207.97,4735.43,3249.3 C4744.09,3249.3,4752.76,3249.3,4761.42,3249.3 C4770.09,3249.3,4778.76,3249.3,4787.42,3249.3 C4787.42,3230.77,4787.42,3212.24,4787.42,3193.7 C4787.42,3140.1,4787.63,3137.9,4792.02,3129.3 C4798.42,3116.5,4805.23,3112.3,4819.43,3112.3 C4833.02,3112.3,4840.42,3116.5,4845.83,3127.5 C4849.02,3133.5,4849.42,3141.1,4849.42,3191.7 C4849.42,3210.9,4849.42,3230.1,4849.42,3249.3 C4858.49,3249.3,4867.56,3249.3,4876.62,3249.3 C4885.69,3249.3,4894.76,3249.3,4903.83,3249.3 C4903.56,3226.77,4903.29,3204.24,4903.03,3181.7 C4902.02,3104.7,4901.22,3100.3,4886.03,3083.3 C4874.42,3070.3,4861.03,3064.7,4841.43,3064.5 C4822.82,3064.5,4810.43,3069.5,4797.02,3082.9 C4793.82,3085.97,4790.62,3089.03,4787.42,3092.1 C4787.42,3076.97,4787.42,3061.83,4787.42,3046.7 C4787.42,3031.57,4787.42,3016.43,4787.42,3001.3 C4778.76,3001.3,4770.09,3001.3,4761.42,3001.3 C4752.76,3001.3,4744.09,3001.3,4735.43,3001.3 C4735.43,3042.64,4735.43,3083.97,4735.43,3125.3 z"/>
            </defs>
            <use xlink:href="#15" style="fill:#ffffff;fill-opacity:1;fill-rule:evenodd;opacity:1;stroke:none;"/>
          </g>
        </defs>
        <use xlink:href="#14"/>
        <defs>
          <title>Shape 9</title>
          <g id="16">
            <defs>
              <path id="17" d="M1377.43,3010.1 C1357.62,3014.3,1343.23,3020.5,1328.03,3031.3 C1300.43,3050.7,1283.43,3077.7,1277.82,3111.9 C1275.03,3129.5,1275.03,3133.1,1277.82,3150.7 C1285.43,3196.1,1313.82,3230.3,1357.43,3246.3 C1379.03,3254.3,1413.82,3255.7,1436.43,3249.5 C1501.23,3231.7,1539.43,3171.3,1526.62,3107.1 C1517.23,3060.3,1483.03,3024.1,1437.43,3012.3 C1419.82,3007.7,1393.23,3006.9,1377.43,3010.1 z M1432.43,3063.5 C1445.82,3069.7,1460.43,3084.7,1467.03,3098.9 C1471.82,3108.9,1472.43,3112.7,1472.43,3131.3 C1472.43,3149.9,1471.82,3153.5,1467.23,3163.3 C1459.62,3179.3,1449.03,3190.3,1434.82,3197.3 C1398.23,3215.3,1357.23,3200.9,1339.03,3163.7 C1332.82,3151.3,1332.43,3148.9,1332.43,3130.3 C1332.43,3112.9,1333.23,3108.9,1337.62,3099.1 C1346.62,3079.7,1361.62,3066.1,1380.03,3060.1 C1393.03,3055.9,1420.03,3057.5,1432.43,3063.5 z"/>
            </defs>
            <use xlink:href="#17" style="fill:#ffffff;fill-opacity:1;fill-rule:evenodd;opacity:1;stroke:none;"/>
          </g>
        </defs>
        <use xlink:href="#16"/>
        <defs>
          <title>Shape 10</title>
          <g id="18">
            <defs>
              <path id="19" d="M3121.22,3013.9 C3088.63,3025.1,3071.63,3047.9,3071.43,3080.5 C3071.43,3105.5,3078.82,3121.1,3096.22,3133.1 C3107.43,3140.9,3120.63,3145.9,3148.03,3153.5 C3186.63,3163.9,3197.43,3170.7,3197.43,3184.1 C3197.43,3213.3,3141.22,3213.5,3101.63,3184.5 C3098.56,3182.24,3095.49,3179.97,3092.43,3177.7 C3087.29,3183.77,3082.16,3189.83,3077.03,3195.9 C3064.82,3210.7,3062.22,3214.9,3064.22,3217.1 C3070.22,3224.7,3097.22,3239.7,3115.22,3245.5 C3171.03,3263.5,3224.43,3249.3,3242.82,3211.7 C3247.82,3201.5,3248.43,3198.3,3248.43,3179.3 C3248.43,3159.7,3248.03,3157.5,3242.63,3147.7 C3231.22,3127.3,3212.43,3117.1,3160.82,3103.3 C3133.82,3096.3,3123.43,3088.9,3123.43,3076.7 C3123.43,3068.1,3126.82,3063.3,3136.03,3059.1 C3151.22,3052.3,3171.63,3055.1,3195.63,3067.3 C3202.63,3070.7,3209.22,3074.5,3210.43,3075.5 C3211.43,3076.5,3213.22,3077.3,3214.43,3077.3 C3216.82,3077.3,3241.43,3042.7,3241.43,3039.3 C3241.43,3035.5,3217.82,3021.9,3201.82,3016.3 C3189.03,3011.9,3182.03,3010.7,3160.43,3010.1 C3137.03,3009.3,3133.03,3009.7,3121.22,3013.9 z"/>
            </defs>
            <use xlink:href="#19" style="fill:#ffffff;fill-opacity:1;fill-rule:evenodd;opacity:1;stroke:none;"/>
          </g>
        </defs>
        <use xlink:href="#18"/>
        <defs>
          <title>Shape 11</title>
          <g id="20">
            <defs>
              <path id="21" d="M260.825,3012.7 C260.025,3013.3,259.425,3066.9,259.425,3131.7 C259.425,3170.9,259.425,3210.1,259.425,3249.3 C268.092,3249.3,276.759,3249.3,285.425,3249.3 C294.092,3249.3,302.759,3249.3,311.425,3249.3 C311.558,3223.97,311.692,3198.64,311.825,3173.3 C312.025,3147.97,312.225,3122.64,312.425,3097.3 C323.425,3113.97,334.425,3130.64,345.425,3147.3 C363.625,3174.7,379.025,3196.5,379.625,3195.7 C380.425,3194.9,395.625,3172.3,413.225,3145.5 C423.958,3129.17,434.692,3112.83,445.425,3096.5 C445.425,3121.97,445.425,3147.43,445.425,3172.9 C445.425,3198.37,445.425,3223.83,445.425,3249.3 C454.425,3249.3,463.425,3249.3,472.425,3249.3 C481.425,3249.3,490.425,3249.3,499.425,3249.3 C499.292,3209.77,499.158,3170.24,499.025,3130.7 C498.825,3091.24,498.625,3051.77,498.425,3012.3 C489.025,3012.1,479.625,3011.9,470.225,3011.7 C460.759,3011.5,451.292,3011.3,441.825,3011.1 C431.692,3027.5,421.558,3043.9,411.425,3060.3 C394.625,3087.3,380.225,3109.3,379.425,3109.3 C378.425,3109.3,364.025,3087.3,347.425,3060.3 C337.292,3043.97,327.158,3027.64,317.025,3011.3 C307.892,3011.3,298.759,3011.3,289.625,3011.3 C274.425,3011.3,261.425,3011.9,260.825,3012.7 z"/>
            </defs>
            <use xlink:href="#21" style="fill:#ffffff;fill-opacity:1;fill-rule:evenodd;opacity:1;stroke:none;"/>
          </g>
        </defs>
        <use xlink:href="#20"/>
        <defs>
          <title>Shape 12</title>
          <g id="22">
            <defs>
              <path id="23" d="M2856.82,3024.7 C2854.22,3028.9,2849.63,3036.5,2846.63,3041.7 C2844.76,3044.9,2842.89,3048.1,2841.03,3051.3 C2844.36,3051.3,2847.69,3051.3,2851.03,3051.3 C2854.36,3051.3,2857.69,3051.3,2861.03,3051.3 C2865.76,3045.64,2870.49,3039.97,2875.22,3034.3 C2880.03,3028.64,2884.82,3022.97,2889.63,3017.3 C2884.96,3017.3,2880.29,3017.3,2875.63,3017.3 C2870.89,3017.3,2866.16,3017.3,2861.43,3017.3 C2859.89,3019.77,2858.36,3022.24,2856.82,3024.7 z"/>
            </defs>
            <use xlink:href="#23" style="fill:#ffffff;fill-opacity:1;fill-rule:evenodd;opacity:1;stroke:none;"/>
          </g>
        </defs>
        <use xlink:href="#22"/>
        <defs>
          <title>Shape 13</title>
          <g id="24">
            <defs>
              <path id="25" d="M844.025,3065.3 C832.625,3067.7,820.625,3074.1,810.225,3083.7 C807.292,3086.43,804.358,3089.17,801.425,3091.9 C801.425,3087.77,801.425,3083.64,801.425,3079.5 C801.425,3075.43,801.425,3071.37,801.425,3067.3 C792.759,3067.3,784.092,3067.3,775.425,3067.3 C766.759,3067.3,758.092,3067.3,749.425,3067.3 C749.425,3106.64,749.425,3145.97,749.425,3185.3 C749.425,3224.64,749.425,3263.97,749.425,3303.3 C758.092,3303.3,766.759,3303.3,775.425,3303.3 C784.092,3303.3,792.759,3303.3,801.425,3303.3 C801.425,3290.5,801.425,3277.7,801.425,3264.9 C801.425,3252.1,801.425,3239.3,801.425,3226.5 C803.625,3228.5,805.825,3230.5,808.025,3232.5 C824.825,3248.5,842.025,3254.5,864.825,3252.7 C909.825,3249.3,941.425,3210.7,941.425,3159.3 C941.225,3109.9,914.225,3073.5,871.425,3065.3 C859.425,3063.1,855.825,3063.1,844.025,3065.3 z M863.025,3113.1 C877.625,3120.7,886.625,3134.1,888.625,3151.9 C890.225,3165.9,886.625,3180.9,879.225,3191.3 C862.825,3213.9,828.025,3213.9,811.625,3191.3 C793.025,3165.7,802.025,3123.9,828.425,3112.1 C837.425,3108.1,854.225,3108.7,863.025,3113.1 z"/>
            </defs>
            <use xlink:href="#25" style="fill:#ffffff;fill-opacity:1;fill-rule:evenodd;opacity:1;stroke:none;"/>
          </g>
        </defs>
        <use xlink:href="#24"/>
        <defs>
          <title>Shape 14</title>
          <g id="26">
            <defs>
              <path id="27" d="M1849.43,3066.5 C1837.82,3069.7,1827.22,3076.1,1819.22,3084.5 C1817.63,3086.24,1816.03,3087.97,1814.43,3089.7 C1814.09,3086.1,1813.76,3082.5,1813.43,3078.9 C1813.09,3075.37,1812.76,3071.83,1812.43,3068.3 C1803.76,3068.3,1795.09,3068.3,1786.43,3068.3 C1777.76,3068.3,1769.09,3068.3,1760.43,3068.3 C1760.22,3098.43,1760.03,3128.57,1759.82,3158.7 C1759.69,3188.9,1759.56,3219.1,1759.43,3249.3 C1768.43,3249.3,1777.43,3249.3,1786.43,3249.3 C1795.43,3249.3,1804.43,3249.3,1813.43,3249.3 C1813.43,3230.24,1813.43,3211.17,1813.43,3192.1 C1813.43,3129.5,1814.03,3125.3,1825.43,3117.3 C1839.22,3107.5,1861.43,3111.3,1869.82,3124.9 C1874.22,3132.1,1874.43,3133.9,1875.03,3190.7 C1875.22,3210.24,1875.43,3229.77,1875.63,3249.3 C1884.29,3249.3,1892.96,3249.3,1901.63,3249.3 C1910.29,3249.3,1918.96,3249.3,1927.63,3249.3 C1927.43,3226.1,1927.22,3202.9,1927.03,3179.7 C1926.82,3156.57,1926.63,3133.43,1926.43,3110.3 C1924.22,3105.83,1922.03,3101.37,1919.82,3096.9 C1916.03,3089.1,1910.03,3080.9,1905.82,3077.3 C1892.03,3065.9,1867.82,3061.3,1849.43,3066.5 z"/>
            </defs>
            <use xlink:href="#27" style="fill:#ffffff;fill-opacity:1;fill-rule:evenodd;opacity:1;stroke:none;"/>
          </g>
        </defs>
        <use xlink:href="#26"/>
        <defs>
          <title>Shape 15</title>
          <g id="28">
            <defs>
              <path id="29" d="M2241.43,3065.5 C2224.43,3068.3,2203.63,3079.3,2191.03,3091.9 C2149.63,3133.3,2156.03,3205.3,2203.82,3237.3 C2220.43,3248.3,2237.63,3253.3,2259.22,3253.3 C2286.63,3253.3,2306.03,3245.9,2324.82,3228.7 C2327.76,3225.97,2330.69,3223.24,2333.63,3220.5 C2328.49,3215.37,2323.36,3210.24,2318.22,3205.1 C2313.09,3199.9,2307.96,3194.7,2302.82,3189.5 C2300.82,3191.17,2298.82,3192.83,2296.82,3194.5 C2275.03,3212.7,2244.82,3212.9,2228.03,3194.9 C2215.03,3181.1,2211.43,3154.7,2220.22,3136.3 C2234.03,3107.3,2265.03,3100.5,2291.03,3121.1 C2294.29,3123.7,2297.56,3126.3,2300.82,3128.9 C2306.03,3123.24,2311.22,3117.57,2316.43,3111.9 C2321.63,3106.3,2326.82,3100.7,2332.03,3095.1 C2329.76,3092.77,2327.49,3090.43,2325.22,3088.1 C2315.63,3078.1,2293.22,3067.7,2276.43,3065.3 C2260.22,3063.1,2256.43,3063.1,2241.43,3065.5 z"/>
            </defs>
            <use xlink:href="#29" style="fill:#ffffff;fill-opacity:1;fill-rule:evenodd;opacity:1;stroke:none;"/>
          </g>
        </defs>
        <use xlink:href="#28"/>
        <defs>
          <title>Shape 16</title>
          <g id="30">
            <defs>
              <path id="31" d="M2614.22,3066.1 C2580.43,3073.9,2556.63,3097.1,2546.43,3132.1 C2541.63,3148.5,2543.03,3179.9,2549.22,3195.7 C2558.22,3218.7,2577.63,3238.3,2601.03,3247.7 C2610.82,3251.5,2616.03,3252.3,2637.43,3252.3 C2658.82,3252.3,2664.22,3251.7,2674.82,3247.7 C2688.63,3242.3,2710.43,3225.9,2710.43,3220.7 C2710.43,3218.9,2704.22,3211.9,2696.63,3205.3 C2692.03,3201.37,2687.43,3197.43,2682.82,3193.5 C2680.76,3195.1,2678.69,3196.7,2676.63,3198.3 C2655.03,3214.7,2624.03,3215.9,2607.82,3200.7 C2603.03,3196.3,2595.43,3183.1,2595.43,3179.3 C2595.43,3177.9,2616.22,3177.3,2658.63,3177.3 C2679.76,3177.3,2700.89,3177.3,2722.03,3177.3 C2721.69,3170.43,2721.36,3163.57,2721.03,3156.7 C2719.22,3122.7,2707.63,3097.1,2686.22,3080.9 C2668.03,3066.9,2638.03,3060.7,2614.22,3066.1 z M2649.03,3110.1 C2658.43,3114.9,2665.82,3125.1,2669.43,3137.5 C2670.03,3139.43,2670.63,3141.37,2671.22,3143.3 C2658.49,3143.3,2645.76,3143.3,2633.03,3143.3 C2620.36,3143.3,2607.69,3143.3,2595.03,3143.3 C2595.43,3141.17,2595.82,3139.03,2596.22,3136.9 C2598.03,3127.9,2606.43,3115.9,2614.03,3111.3 C2621.82,3106.5,2640.82,3105.9,2649.03,3110.1 z"/>
            </defs>
            <use xlink:href="#31" style="fill:#ffffff;fill-opacity:1;fill-rule:evenodd;opacity:1;stroke:none;"/>
          </g>
        </defs>
        <use xlink:href="#30"/>
        <defs>
          <title>Shape 17</title>
          <g id="32">
            <defs>
              <path id="33" d="M2850.82,3065.3 C2839.22,3068.3,2831.22,3072.9,2821.03,3082.9 C2817.82,3085.97,2814.63,3089.03,2811.43,3092.1 C2811.43,3087.97,2811.43,3083.83,2811.43,3079.7 C2811.43,3075.57,2811.43,3071.43,2811.43,3067.3 C2802.76,3067.3,2794.09,3067.3,2785.43,3067.3 C2776.76,3067.3,2768.09,3067.3,2759.43,3067.3 C2759.43,3097.64,2759.43,3127.97,2759.43,3158.3 C2759.43,3188.64,2759.43,3218.97,2759.43,3249.3 C2768.03,3249.3,2776.63,3249.3,2785.22,3249.3 C2793.89,3249.3,2802.56,3249.3,2811.22,3249.3 C2811.43,3230.1,2811.63,3210.9,2811.82,3191.7 C2812.43,3138.5,2812.63,3133.9,2816.43,3127.5 C2823.03,3116.3,2830.03,3112.3,2843.43,3112.3 C2857.03,3112.3,2864.43,3116.5,2869.82,3127.5 C2873.03,3133.5,2873.43,3141.1,2873.43,3191.7 C2873.43,3210.9,2873.43,3230.1,2873.43,3249.3 C2882.49,3249.3,2891.56,3249.3,2900.63,3249.3 C2909.69,3249.3,2918.76,3249.3,2927.82,3249.3 C2927.56,3226.77,2927.29,3204.24,2927.03,3181.7 C2926.22,3122.3,2925.82,3113.1,2922.43,3103.7 C2917.63,3089.9,2904.22,3075.1,2892.03,3069.7 C2880.63,3064.9,2861.43,3062.7,2850.82,3065.3 z"/>
            </defs>
            <use xlink:href="#33" style="fill:#ffffff;fill-opacity:1;fill-rule:evenodd;opacity:1;stroke:none;"/>
          </g>
        </defs>
        <use xlink:href="#32"/>
        <defs>
          <title>Shape 18</title>
          <g id="34">
            <defs>
              <path id="35" d="M3584.03,3065.3 C3572.63,3067.7,3560.63,3074.1,3550.22,3083.7 C3547.29,3086.43,3544.36,3089.17,3541.43,3091.9 C3541.43,3087.77,3541.43,3083.64,3541.43,3079.5 C3541.43,3075.43,3541.43,3071.37,3541.43,3067.3 C3532.76,3067.3,3524.09,3067.3,3515.43,3067.3 C3506.76,3067.3,3498.09,3067.3,3489.43,3067.3 C3489.43,3106.64,3489.43,3145.97,3489.43,3185.3 C3489.43,3224.64,3489.43,3263.97,3489.43,3303.3 C3498.09,3303.3,3506.76,3303.3,3515.43,3303.3 C3524.09,3303.3,3532.76,3303.3,3541.43,3303.3 C3541.43,3290.5,3541.43,3277.7,3541.43,3264.9 C3541.43,3252.1,3541.43,3239.3,3541.43,3226.5 C3543.63,3228.5,3545.82,3230.5,3548.03,3232.5 C3564.82,3248.5,3582.03,3254.5,3604.82,3252.7 C3650.03,3249.3,3681.43,3210.9,3681.43,3159.5 C3681.43,3110.1,3654.03,3073.3,3611.63,3065.3 C3599.43,3063.1,3595.82,3063.1,3584.03,3065.3 z M3600.03,3111.1 C3607.82,3114.1,3619.22,3125.1,3623.63,3133.9 C3632.22,3150.7,3630.43,3175.9,3619.22,3191.3 C3602.82,3213.9,3568.03,3213.9,3551.63,3191.3 C3533.22,3165.9,3542.22,3123.7,3568.43,3112.1 C3575.43,3109.1,3593.03,3108.5,3600.03,3111.1 z"/>
            </defs>
            <use xlink:href="#35" style="fill:#ffffff;fill-opacity:1;fill-rule:evenodd;opacity:1;stroke:none;"/>
          </g>
        </defs>
        <use xlink:href="#34"/>
        <defs>
          <title>Shape 19</title>
          <g id="36">
            <defs>
              <path id="37" d="M3785.43,3065.3 C3729.03,3075.3,3696.03,3135.7,3715.63,3192.9 C3728.63,3230.9,3762.03,3253.3,3805.63,3253.3 C3833.22,3253.3,3855.63,3244.7,3872.03,3227.7 C3874.63,3225.03,3877.22,3222.37,3879.82,3219.7 C3876.89,3217.03,3873.96,3214.37,3871.03,3211.7 C3866.43,3207.3,3859.63,3201.5,3856.43,3198.7 C3854.36,3197.03,3852.29,3195.37,3850.22,3193.7 C3848.63,3195.03,3847.03,3196.37,3845.43,3197.7 C3827.03,3212.3,3802.22,3215.7,3783.22,3205.7 C3774.43,3201.1,3771.43,3198.1,3766.82,3189.3 C3764.96,3185.64,3763.09,3181.97,3761.22,3178.3 C3782.43,3177.97,3803.63,3177.64,3824.82,3177.3 C3846.03,3176.97,3867.22,3176.64,3888.43,3176.3 C3888.63,3173.03,3888.82,3169.77,3889.03,3166.5 C3889.43,3161.3,3888.63,3150.7,3887.43,3143.1 C3880.82,3100.1,3854.63,3071.7,3815.43,3065.5 C3800.82,3063.1,3798.22,3063.1,3785.43,3065.3 z M3817.03,3110.1 C3824.43,3113.9,3830.63,3121.1,3834.43,3129.7 C3840.22,3143.9,3841.63,3143.3,3799.43,3143.3 C3778.63,3143.3,3761.43,3142.9,3761.43,3142.5 C3761.43,3142.3,3762.43,3138.9,3763.63,3135.1 C3766.82,3125.9,3774.63,3115.7,3782.22,3111.1 C3789.82,3106.5,3809.03,3105.9,3817.03,3110.1 z"/>
            </defs>
            <use xlink:href="#37" style="fill:#ffffff;fill-opacity:1;fill-rule:evenodd;opacity:1;stroke:none;"/>
          </g>
        </defs>
        <use xlink:href="#36"/>
        <defs>
          <title>Shape 20</title>
          <g id="38">
            <defs>
              <path id="39" d="M4016.82,3066.1 C4005.03,3069.3,3994.43,3077.5,3986.03,3090.1 C3983.82,3093.3,3981.63,3096.5,3979.43,3099.7 C3979.43,3094.3,3979.43,3088.9,3979.43,3083.5 C3979.43,3078.1,3979.43,3072.7,3979.43,3067.3 C3970.76,3067.3,3962.09,3067.3,3953.43,3067.3 C3944.76,3067.3,3936.09,3067.3,3927.43,3067.3 C3927.43,3097.64,3927.43,3127.97,3927.43,3158.3 C3927.43,3188.64,3927.43,3218.97,3927.43,3249.3 C3936.09,3249.3,3944.76,3249.3,3953.43,3249.3 C3962.09,3249.3,3970.76,3249.3,3979.43,3249.3 C3979.43,3235.97,3979.43,3222.64,3979.43,3209.3 C3979.43,3187.5,3980.43,3165.1,3981.63,3159.5 C3986.43,3136.9,4003.03,3121.9,4025.43,3119.9 C4029.49,3119.5,4033.56,3119.1,4037.63,3118.7 C4037.43,3109.64,4037.22,3100.57,4037.03,3091.5 C4036.82,3082.43,4036.63,3073.37,4036.43,3064.3 C4034.76,3064.17,4033.09,3064.03,4031.43,3063.9 C4028.63,3063.7,4022.03,3064.7,4016.82,3066.1 z"/>
            </defs>
            <use xlink:href="#39" style="fill:#ffffff;fill-opacity:1;fill-rule:evenodd;opacity:1;stroke:none;"/>
          </g>
        </defs>
        <use xlink:href="#38"/>
        <defs>
          <title>Shape 21</title>
          <g id="40">
            <defs>
              <path id="41" d="M4612.42,3065.5 C4565.23,3073.3,4533.43,3111.1,4533.43,3159.3 C4533.43,3214.1,4573.43,3253.3,4629.62,3253.3 C4652.82,3253.3,4669.63,3248.1,4685.83,3235.7 C4704.82,3221.3,4704.82,3221.7,4687.62,3204.5 C4682.69,3199.5,4677.76,3194.5,4672.82,3189.5 C4670.42,3191.37,4668.03,3193.24,4665.63,3195.1 C4643.82,3212.3,4619.62,3213.3,4601.82,3198.1 C4590.03,3188.1,4585.42,3177.1,4585.42,3158.9 C4585.42,3138.9,4592.03,3125.1,4606.02,3116.5 C4624.03,3105.5,4643.43,3107.7,4663.03,3122.9 C4665.49,3124.83,4667.96,3126.77,4670.42,3128.7 C4675.69,3123.03,4680.96,3117.37,4686.23,3111.7 C4691.56,3106.03,4696.89,3100.37,4702.23,3094.7 C4699.22,3092.03,4696.23,3089.37,4693.22,3086.7 C4681.42,3075.9,4663.43,3067.9,4646.42,3065.3 C4630.43,3063.1,4626.42,3063.1,4612.42,3065.5 z"/>
            </defs>
            <use xlink:href="#41" style="fill:#ffffff;fill-opacity:1;fill-rule:evenodd;opacity:1;stroke:none;"/>
          </g>
        </defs>
        <use xlink:href="#40"/>
        <defs>
          <title>Shape 22</title>
          <g id="42">
            <defs>
              <path id="43" d="M595.425,3067.5 C582.825,3069.7,559.425,3076.9,556.625,3079.5 C555.425,3080.5,556.825,3088.3,560.425,3099.7 C563.625,3109.9,566.425,3118.5,566.625,3118.9 C566.825,3119.1,573.625,3117.7,581.625,3115.3 C600.825,3110.1,629.425,3109.7,639.425,3114.9 C648.225,3119.3,655.425,3129.9,655.425,3138.5 C655.425,3146.1,655.625,3146.1,648.625,3143.3 C638.625,3139.7,612.625,3137.5,598.225,3139.3 C558.825,3144.3,538.825,3163.5,538.825,3196.5 C538.825,3223.5,553.625,3242.9,579.625,3250.1 C603.025,3256.7,631.225,3251.7,647.025,3238.1 C649.825,3235.7,652.625,3233.3,655.425,3230.9 C655.425,3233.97,655.425,3237.03,655.425,3240.1 C655.425,3243.17,655.425,3246.24,655.425,3249.3 C663.825,3249.3,672.225,3249.3,680.625,3249.3 C688.958,3249.3,697.292,3249.3,705.625,3249.3 C705.425,3227.03,705.225,3204.77,705.025,3182.5 C704.825,3160.3,704.625,3138.1,704.425,3115.9 C702.092,3111.3,699.759,3106.7,697.425,3102.1 C684.825,3077.5,665.225,3067.3,628.425,3066.1 C616.425,3065.9,601.425,3066.3,595.425,3067.5 z M638.625,3171.5 C656.425,3174.5,658.225,3176.5,656.425,3188.3 C654.425,3201.7,644.625,3211.7,629.825,3215.3 C606.625,3220.7,589.425,3212.1,589.425,3194.9 C589.425,3183.1,595.625,3175.7,608.425,3172.3 C621.025,3168.9,623.225,3168.9,638.625,3171.5 z"/>
            </defs>
            <use xlink:href="#43" style="fill:#ffffff;fill-opacity:1;fill-rule:evenodd;opacity:1;stroke:none;"/>
          </g>
        </defs>
        <use xlink:href="#42"/>
        <defs>
          <title>Shape 23</title>
          <g id="44">
            <defs>
              <path id="45" d="M1020.43,3068.5 C1002.23,3072.1,983.025,3079.3,984.025,3082.1 C984.425,3083.3,987.425,3091.9,990.425,3101.3 C993.425,3110.7,996.225,3118.5,996.425,3118.9 C996.625,3119.1,1003.62,3117.7,1011.62,3115.3 C1031.23,3109.9,1059.62,3109.7,1069.43,3115.1 C1078.62,3119.9,1083.43,3126.9,1084.82,3136.9 C1085.43,3141.5,1085.62,3145.3,1085.23,3145.3 C1084.82,3145.3,1081.23,3144.3,1077.43,3143.3 C1040.82,3132.3,994.225,3141.1,979.225,3161.9 C961.825,3185.9,964.825,3220.3,986.025,3238.3 C1008.82,3257.9,1054.23,3257.7,1077.03,3238.1 C1079.82,3235.7,1082.62,3233.3,1085.43,3230.9 C1085.43,3233.97,1085.43,3237.03,1085.43,3240.1 C1085.43,3243.17,1085.43,3246.24,1085.43,3249.3 C1093.82,3249.3,1102.23,3249.3,1110.62,3249.3 C1118.96,3249.3,1127.29,3249.3,1135.62,3249.3 C1135.43,3227.43,1135.23,3205.57,1135.03,3183.7 C1134.43,3126.7,1133.82,3117.1,1130.62,3108.9 C1126.23,3097.3,1111.62,3080.5,1101.23,3075.1 C1082.43,3065.7,1048.82,3062.9,1020.43,3068.5 z M1078.03,3173.5 C1085.23,3175.5,1085.43,3175.7,1085.43,3184.9 C1085.43,3196.9,1080.03,3205.9,1069.43,3211.3 C1052.82,3219.7,1031.62,3218.3,1023.62,3207.9 C1015.62,3198.1,1019.03,3180.9,1030.03,3174.9 C1040.43,3169.3,1060.23,3168.7,1078.03,3173.5 z"/>
            </defs>
            <use xlink:href="#45" style="fill:#ffffff;fill-opacity:1;fill-rule:evenodd;opacity:1;stroke:none;"/>
          </g>
        </defs>
        <use xlink:href="#44"/>
        <defs>
          <title>Shape 24</title>
          <g id="46">
            <defs>
              <path id="47" d="M2014.43,3068.1 C1996.82,3071.5,1977.43,3078.9,1977.43,3082.1 C1977.43,3083.3,1980.03,3092.1,1983.22,3101.3 C1989.63,3120.3,1988.63,3119.9,2008.43,3114.5 C2023.03,3110.5,2051.22,3110.3,2060.03,3114.1 C2070.03,3118.3,2075.82,3125.9,2077.03,3136.5 C2077.82,3145.1,2077.63,3145.9,2074.43,3144.5 C2064.63,3140.7,2050.63,3138.9,2033.43,3138.9 C2007.43,3138.9,1990.43,3144.3,1977.22,3156.7 C1965.63,3167.5,1961.43,3178.5,1961.43,3197.7 C1961.43,3220.9,1970.43,3235.5,1990.63,3245.5 C2016.22,3258.1,2050.03,3254.9,2070.43,3237.7 C2072.43,3236.03,2074.43,3234.37,2076.43,3232.7 C2076.63,3235.43,2076.82,3238.17,2077.03,3240.9 C2077.22,3243.7,2077.43,3246.5,2077.63,3249.3 C2086.29,3249.3,2094.96,3249.3,2103.63,3249.3 C2112.22,3249.3,2120.82,3249.3,2129.43,3249.3 C2129.43,3231.43,2129.43,3213.57,2129.43,3195.7 C2129.43,3132.7,2127.82,3119.1,2119.03,3101.3 C2111.43,3086.5,2101.43,3077.9,2084.03,3071.3 C2069.22,3065.7,2035.03,3064.1,2014.43,3068.1 z M2073.22,3174.5 C2079.82,3177.3,2079.82,3177.5,2078.82,3186.5 C2077.22,3202.1,2065.22,3213.7,2048.22,3216.3 C2027.63,3219.3,2011.43,3210.7,2011.43,3196.3 C2011.43,3177.3,2026.22,3168.3,2053.43,3170.7 C2060.63,3171.3,2069.43,3172.9,2073.22,3174.5 z"/>
            </defs>
            <use xlink:href="#47" style="fill:#ffffff;fill-opacity:1;fill-rule:evenodd;opacity:1;stroke:none;"/>
          </g>
        </defs>
        <use xlink:href="#46"/>
        <defs>
          <title>Shape 25</title>
          <g id="48">
            <defs>
              <path id="49" d="M3336.43,3067.3 C3320.82,3069.9,3297.03,3077.9,3296.03,3080.7 C3295.03,3083.1,3304.63,3115.1,3307.22,3117.7 C3307.82,3118.3,3314.82,3117.3,3322.43,3115.3 C3341.22,3110.3,3369.82,3110.1,3379.43,3114.9 C3388.22,3119.3,3395.43,3129.9,3395.43,3138.9 C3395.43,3144.5,3394.82,3145.5,3392.03,3144.5 C3373.82,3137.5,3339.03,3136.9,3318.43,3143.3 C3300.82,3148.9,3285.22,3163.1,3281.43,3177.3 C3274.43,3202.3,3281.63,3227.7,3299.22,3240.3 C3323.63,3258.1,3365.03,3257.1,3387.03,3238.1 C3389.82,3235.7,3392.63,3233.3,3395.43,3230.9 C3395.43,3233.97,3395.43,3237.03,3395.43,3240.1 C3395.43,3243.17,3395.43,3246.24,3395.43,3249.3 C3404.09,3249.3,3412.76,3249.3,3421.43,3249.3 C3430.09,3249.3,3438.76,3249.3,3447.43,3249.3 C3447.43,3232.43,3447.43,3215.57,3447.43,3198.7 C3447.43,3134.7,3445.63,3118.5,3437.03,3101.3 C3424.82,3077.7,3404.82,3067.3,3368.43,3066.1 C3356.43,3065.9,3342.03,3066.3,3336.43,3067.3 z M3378.63,3171.5 C3396.43,3174.5,3398.22,3176.5,3396.43,3188.3 C3394.43,3201.7,3384.63,3211.7,3369.82,3215.3 C3347.63,3220.5,3329.43,3212.1,3329.43,3196.3 C3329.43,3182.7,3336.22,3174.9,3351.63,3171.3 C3361.43,3169.1,3364.63,3169.1,3378.63,3171.5 z"/>
            </defs>
            <use xlink:href="#49" style="fill:#ffffff;fill-opacity:1;fill-rule:evenodd;opacity:1;stroke:none;"/>
          </g>
        </defs>
        <use xlink:href="#48"/>
        <defs>
          <title>Shape 26</title>
          <g id="50">
            <defs>
              <path id="51" d="M4105.22,3068.5 C4081.22,3075.7,4065.82,3094.3,4064.03,3118.1 C4062.22,3139.3,4069.63,3154.5,4087.22,3165.5 C4092.22,3168.9,4107.82,3175.1,4121.63,3179.5 C4150.43,3188.5,4157.43,3193.5,4154.22,3202.7 C4149.22,3216.9,4123.23,3216.1,4093.03,3200.7 C4087.29,3197.77,4081.56,3194.83,4075.82,3191.9 C4072.36,3197.3,4068.89,3202.7,4065.43,3208.1 C4057.82,3219.7,4055.43,3224.9,4056.82,3227.1 C4057.82,3228.7,4064.03,3233.1,4070.63,3236.7 C4103.43,3255.1,4146.02,3258.3,4173.43,3244.3 C4191.82,3234.9,4201.82,3217.9,4201.82,3195.5 C4202.03,3167.7,4187.03,3152.7,4144.43,3138.5 C4120.62,3130.7,4112.62,3125.5,4111.83,3117.9 C4110.22,3101.9,4137.62,3101.1,4167.82,3116.5 C4173.02,3119.1,4177.63,3121.3,4178.23,3121.3 C4180.62,3121.3,4197.62,3087.1,4196.23,3085.1 C4194.22,3081.7,4172.03,3072.1,4158.02,3068.5 C4143.22,3064.5,4117.62,3064.5,4105.22,3068.5 z"/>
            </defs>
            <use xlink:href="#51" style="fill:#ffffff;fill-opacity:1;fill-rule:evenodd;opacity:1;stroke:none;"/>
          </g>
        </defs>
        <use xlink:href="#50"/>
        <defs>
          <title>Shape 27</title>
          <g id="52">
            <defs>
              <path id="53" d="M1566.82,3068.7 C1566.03,3069.3,1565.43,3078.9,1565.43,3089.7 C1565.43,3096.24,1565.43,3102.77,1565.43,3109.3 C1580.43,3109.3,1595.43,3109.3,1610.43,3109.3 C1635.23,3109.3,1655.43,3109.9,1655.23,3110.7 C1655.23,3111.7,1634.62,3134.7,1609.43,3162.3 C1594.16,3178.97,1578.89,3195.64,1563.62,3212.3 C1563.56,3218.43,1563.49,3224.57,1563.43,3230.7 C1563.43,3236.9,1563.43,3243.1,1563.43,3249.3 C1589.76,3249.3,1616.09,3249.3,1642.43,3249.3 C1668.76,3249.3,1695.09,3249.3,1721.43,3249.3 C1721.43,3242.3,1721.43,3235.3,1721.43,3228.3 C1721.43,3221.3,1721.43,3214.3,1721.43,3207.3 C1706.09,3207.17,1690.76,3207.03,1675.43,3206.9 C1660.03,3206.7,1644.62,3206.5,1629.23,3206.3 C1644.62,3189.37,1660.03,3172.43,1675.43,3155.5 C1690.76,3138.64,1706.09,3121.77,1721.43,3104.9 C1721.43,3098.64,1721.43,3092.37,1721.43,3086.1 C1721.43,3079.83,1721.43,3073.57,1721.43,3067.3 C1695.89,3067.3,1670.36,3067.3,1644.82,3067.3 C1602.62,3067.3,1567.43,3067.9,1566.82,3068.7 z"/>
            </defs>
            <use xlink:href="#53" style="fill:#ffffff;fill-opacity:1;fill-rule:evenodd;opacity:1;stroke:none;"/>
          </g>
        </defs>
        <use xlink:href="#52"/>
        <defs>
          <title>Shape 28</title>
          <g id="54">
            <defs>
              <path id="55" d="M2363.43,3088.3 C2363.43,3095.3,2363.43,3102.3,2363.43,3109.3 C2378.16,3109.3,2392.89,3109.3,2407.63,3109.3 C2433.43,3109.3,2451.43,3110.1,2451.03,3111.1 C2450.82,3112.1,2430.03,3135.5,2405.03,3163.1 C2389.82,3179.9,2374.63,3196.7,2359.43,3213.5 C2359.43,3219.43,2359.43,3225.37,2359.43,3231.3 C2359.43,3237.3,2359.43,3243.3,2359.43,3249.3 C2386.09,3249.3,2412.76,3249.3,2439.43,3249.3 C2466.16,3249.3,2492.89,3249.3,2519.63,3249.3 C2519.43,3242.43,2519.22,3235.57,2519.03,3228.7 C2518.82,3221.9,2518.63,3215.1,2518.43,3208.3 C2502.96,3207.97,2487.49,3207.64,2472.03,3207.3 C2456.56,3206.97,2441.09,3206.64,2425.63,3206.3 C2441.29,3189.1,2456.96,3171.9,2472.63,3154.7 C2488.29,3137.43,2503.96,3120.17,2519.63,3102.9 C2519.43,3097.17,2519.22,3091.43,2519.03,3085.7 C2518.82,3079.9,2518.63,3074.1,2518.43,3068.3 C2492.63,3068.1,2466.82,3067.9,2441.03,3067.7 C2415.16,3067.57,2389.29,3067.43,2363.43,3067.3 C2363.43,3074.3,2363.43,3081.3,2363.43,3088.3 z"/>
            </defs>
            <use xlink:href="#55" style="fill:#ffffff;fill-opacity:1;fill-rule:evenodd;opacity:1;stroke:none;"/>
          </g>
        </defs>
        <use xlink:href="#54"/>
        <defs>
          <title>Shape 29</title>
          <g id="56">
            <defs>
              <path id="57" d="M4441.43,3158.3 C4441.43,3188.64,4441.43,3218.97,4441.43,3249.3 C4450.09,3249.3,4458.76,3249.3,4467.43,3249.3 C4476.09,3249.3,4484.76,3249.3,4493.43,3249.3 C4493.43,3218.97,4493.43,3188.64,4493.43,3158.3 C4493.43,3127.97,4493.43,3097.64,4493.43,3067.3 C4484.76,3067.3,4476.09,3067.3,4467.43,3067.3 C4458.76,3067.3,4450.09,3067.3,4441.43,3067.3 C4441.43,3097.64,4441.43,3127.97,4441.43,3158.3 z"/>
            </defs>
            <use xlink:href="#57" style="fill:#ffffff;fill-opacity:1;fill-rule:evenodd;opacity:1;stroke:none;"/>
          </g>
        </defs>
        <use xlink:href="#56"/>
      </g>
    </g>
    <clipPath id="59">
      <use xlink:href="#58"/>
      <path id="58" d="M-2418.57,-1962.7 C-2418.57,-1962.7,7581.42,-1962.7,7581.42,-1962.7 C7581.42,-1962.7,7581.42,5537.3,7581.42,5537.3 C7581.42,5537.3,-2418.57,5537.3,-2418.57,5537.3 C-2418.57,5537.3,-2418.57,-1962.7,-2418.57,-1962.7 z"/>
    </clipPath>
    <g id="60" style="clip-path:url(#59);"/>
    <defs>
      <title>Path</title>
      <g id="61">
        <defs>
          <path id="62" d="M1607.92,2874.37 C1607.92,2874.37,3400.51,2868.46,3400.51,2868.46 C3400.51,2868.46,3659.18,1051.61,3659.18,1051.61 C3659.18,1051.61,3559.73,963.792,3559.73,963.792 C3559.73,963.792,3507.7,986.024,3507.7,986.024 C3507.7,986.024,3197.78,2747.67,3197.78,2747.67 C3197.78,2747.67,3137.55,2741.08,3137.55,2741.08 C3137.55,2741.08,3390.4,745.307,3390.4,745.307 C3390.4,745.307,3193,667.566,3193,667.566 C3193,667.566,2821.68,2708.45,2821.68,2708.45 C2821.68,2708.45,2186.54,2708.89,2186.54,2708.89 C2186.54,2708.89,1816.51,667.566,1816.51,667.566 C1816.51,667.566,1606.9,743.929,1606.9,743.929 C1606.9,743.929,1869.8,2719.34,1869.8,2719.34 C1869.8,2719.34,1808.75,2745.79,1808.75,2745.79 C1808.75,2745.79,1500.12,985.97,1500.12,985.97 C1500.12,985.97,1449.8,963.711,1449.8,963.711 C1449.8,963.711,1348.68,1051.22,1348.68,1051.22 C1348.68,1051.22,1607.92,2874.37,1607.92,2874.37 z"/>
        </defs>
        <use xlink:href="#62" style="fill:#000000;fill-opacity:1;fill-rule:nonzero;opacity:1;stroke:none;"/>
        <use xlink:href="#62" style="fill:none;opacity:1;stroke:#ff1c24;stroke-linecap:butt;stroke-linejoin:miter;stroke-miterlimit:10;stroke-opacity:1;stroke-width:0;"/>
      </g>
    </defs>
    <use xlink:href="#61"/>
  </g>
  <g id="63">
    <title>Layer 2</title>
    <defs>
      <title>Path</title>
      <g id="64">
        <defs>
          <path id="65" d="M2356.41,2473.35 C2356.41,2473.35,2535.49,2257.7,2535.49,2257.7 C2535.49,2257.7,2544.64,2265.08,2544.64,2265.08 C2544.64,2265.08,2505.38,2330.52,2505.38,2330.52 C2505.38,2330.52,2544.64,2316.43,2544.64,2316.43 C2544.64,2316.43,2550.92,2328.96,2550.92,2328.96 C2550.92,2328.96,2564.9,2320.35,2564.9,2320.35 C2564.9,2320.35,2580.78,2284.11,2580.78,2284.11 C2580.78,2284.11,2588.12,2268.1,2598.75,2262.9 C2609.38,2257.7,2650.65,2259.63,2650.65,2259.63 C2650.65,2259.63,2663.91,2261.14,2671.52,2277.68 C2679.13,2294.22,2683.79,2315.43,2683.79,2315.43 C2683.79,2315.43,2683.79,2340.87,2683.79,2340.87 C2683.79,2340.87,2683.85,2342.24,2689.78,2345.44 C2695.7,2348.65,2661.51,2348.16,2661.51,2348.16 C2661.51,2348.16,2664.82,2371.6,2660.53,2376.1 C2656.23,2380.6,2649.4,2369.3,2645.64,2375.88 C2641.87,2382.46,2629.46,2386.99,2629.46,2386.99 C2629.46,2386.99,2626,2395.99,2626,2395.99 C2626,2395.99,2612.61,2400.15,2612.61,2400.15 C2612.61,2400.15,2601.06,2385.83,2601.06,2385.83 C2601.06,2385.83,2596.07,2382.37,2596.07,2382.37 C2596.07,2382.37,2573.54,2391.29,2573.54,2391.29 C2573.54,2391.29,2573.13,2460.52,2573.13,2460.52 C2573.13,2460.52,2559.88,2458.61,2559.88,2458.61 C2559.88,2458.61,2559.7,2464.04,2560.06,2472.15 C2560.23,2476.05,2560.53,2480.57,2561.03,2485.41 C2561.92,2494.03,2563.46,2503.65,2566.1,2512.5 C2568.74,2521.35,2572.48,2529.44,2577.78,2535 C2597.51,2555.72,2649.31,2623.11,2649.31,2623.11 C2649.31,2623.11,2690.47,2678.92,2690.47,2678.92 C2690.47,2678.92,2666.87,2719.34,2666.87,2719.34 C2666.87,2719.34,2481.63,2719.34,2481.63,2719.34 C2481.63,2719.34,2270.13,2719.34,2270.13,2719.34 C2270.13,2719.34,2270.13,2690.81,2270.13,2690.81 C2270.13,2690.81,2268.99,2687.71,2276.28,2684.37 C2283.58,2681.04,2285.13,2678.4,2285.13,2678.4 C2285.13,2678.4,2295.38,2671.28,2292.03,2664.4 C2288.69,2657.53,2283.47,2655.13,2283.47,2655.13 C2283.47,2655.13,2294.35,2622.28,2294.35,2622.28 C2294.35,2622.28,2310.49,2625.95,2310.49,2625.95 C2310.49,2625.95,2328.83,2588.15,2328.83,2588.15 C2328.83,2588.15,2300.35,2575.42,2300.35,2575.42 C2300.35,2575.42,2372.03,2488.52,2372.03,2488.52 C2372.03,2488.52,2356.41,2473.35,2356.41,2473.35 z"/>
        </defs>
        <use xlink:href="#65" style="fill:#000000;fill-opacity:1;fill-rule:nonzero;opacity:1;stroke:none;"/>
        <use xlink:href="#65" style="fill:none;opacity:1;stroke:#000000;stroke-linecap:butt;stroke-linejoin:miter;stroke-miterlimit:10;stroke-opacity:1;stroke-width:8;"/>
      </g>
    </defs>
    <use xlink:href="#64"/>
  </g>
</svg>
